<svg width="90" height="90" viewBox="0 0 90 90" fill="none" xmlns="http://www.w3.org/2000/svg">
<path d="M7.78135 89.8334C7.78135 89.8334 0 89.8334 0 82.052V7.78135C0 7.78135 0 0 7.78135 0H82.052C82.052 0 89.8334 0 89.8334 7.78135V82.052C89.8334 82.052 89.8334 89.8334 82.052 89.8334H7.78135Z" fill="#084411"/>
<path d="M57.9672 18.4614C52.6981 18.4614 47.9958 25.4827 44.9232 36.4655C41.8506 25.4891 37.1483 18.4614 31.8791 18.4614C22.6162 18.4614 15.1054 41.8248 15.1054 70.6441H22.5647C22.5647 43.8861 26.7388 22.1911 31.8855 22.1911C37.0323 22.1911 41.2064 42.2177 41.2064 66.921H48.6593C48.6593 42.2177 52.8334 22.1911 57.9801 22.1911C63.1269 22.1911 67.301 43.8861 67.301 70.6441H74.7538C74.7538 41.8248 67.243 18.4614 57.9801 18.4614H57.9672Z" fill="#FFBC0D"/>
</svg>
