<svg width="125" height="124" viewBox="0 0 125 124" fill="none" xmlns="http://www.w3.org/2000/svg">
<path d="M93.9498 0.0200195H30.7198C13.9398 0.0200195 0.339844 13.63 0.339844 30.42V93.6C0.339844 110.39 13.9398 124 30.7198 124H93.9498C110.73 124 124.33 110.39 124.33 93.6V30.42C124.33 13.63 110.73 0.0200195 93.9498 0.0200195Z" fill="url(#paint0_linear_89_20396)"/>
<path d="M86.2598 63.0602C86.2598 63.0602 86.2398 63.0302 86.2298 63.0202C86.6598 61.4602 87.0398 59.8302 87.3598 58.1402C89.5098 46.8302 85.4598 40.2102 81.6898 36.6502C75.5898 30.8902 65.4198 28.4102 51.4898 29.2702C41.8698 29.8702 33.8298 31.8602 33.4898 31.9502L28.7998 33.1302V94.1502H41.1998V43.0202C44.1198 42.5002 48.1298 41.9002 52.4398 41.6502C62.4298 41.0502 69.7998 42.4902 73.1898 45.6902C73.9398 46.4002 76.0998 48.4402 75.4498 54.1302C72.5898 52.8202 69.5698 52.1302 66.5398 52.1102C61.5898 52.1002 56.9598 53.9002 53.4898 57.2102C49.8998 60.6402 47.8298 65.3402 47.5198 70.7802V70.8402C47.1398 78.7402 52.6598 85.1602 60.6398 86.1002C66.3098 86.7702 72.2698 84.5102 76.9898 79.8902C77.9998 78.9002 78.9398 77.8302 79.8198 76.6602C81.5998 80.9002 83.1098 86.8002 83.4998 94.9202L95.8798 94.3202C95.2498 81.3802 91.9298 70.5802 86.2598 63.0702V63.0602ZM70.5098 67.1302C69.5498 68.7802 68.3398 70.1202 66.8998 71.1002C65.6898 71.9202 64.5698 72.3302 63.8398 72.5202C63.7198 72.5502 63.5998 72.5702 63.4798 72.5902C63.2898 72.6202 63.0998 72.6402 62.9098 72.6402C61.6498 72.6402 60.5098 71.9102 60.0798 70.8202C59.6798 69.8102 59.9598 68.7202 60.8298 67.9002C61.3898 67.3802 62.0198 66.9302 62.7198 66.5802C63.9698 65.9502 65.3298 65.6402 66.7598 65.6402C67.0098 65.6402 67.2698 65.6402 67.5198 65.6702C68.3598 65.7302 69.2398 65.9002 70.1198 66.1802H70.1598L70.8998 66.4202L70.4898 67.1302H70.5098Z" fill="white"/>
<path d="M47.5098 70.7702L60.6298 86.1001C66.2998 86.7701 72.2597 84.5101 76.9797 79.8901C77.9897 78.9001 78.9298 77.8302 79.8098 76.6602C79.8098 76.6602 76.9097 68.8101 70.9197 66.4201C70.9497 66.3301 70.5098 67.1302 70.5098 67.1302C69.5498 68.7802 68.3398 70.1201 66.8998 71.1001C65.6898 71.9201 64.5698 72.3302 63.8398 72.5202C63.7198 72.5502 63.5997 72.5701 63.4797 72.5901C63.2897 72.6201 63.0997 72.6401 62.9097 72.6401C61.6497 72.6401 60.5098 71.9101 60.0798 70.8201L60.6198 86.0901L47.5098 70.7702Z" fill="url(#paint1_linear_89_20396)"/>
<defs>
<linearGradient id="paint0_linear_89_20396" x1="1.56984" y1="105.01" x2="123.1" y2="19.01" gradientUnits="userSpaceOnUse">
<stop offset="0.3" stop-color="#F77F43"/>
<stop offset="1" stop-color="#FFB948"/>
</linearGradient>
<linearGradient id="paint1_linear_89_20396" x1="64" y1="78.8103" x2="77.5" y2="71.8103" gradientUnits="userSpaceOnUse">
<stop stop-color="white"/>
<stop offset="0.240385" stop-color="#F7EBD9"/>
<stop offset="0.625" stop-color="#FFB949"/>
<stop offset="1" stop-color="#F78044"/>
</linearGradient>
</defs>
</svg>
